{"title":"Sci.Fi.Science.Physics.of.The.Impossible.01of12.How.To.Explore.T","uid":5574170,"size":334306332,"categoryP":"video","categoryS":"tv_shows","magnet":"?xt=urn:btih:92d734fb5737b4718c532bb8fec4583c8d0e0567&amp;dn=Sci.Fi.Science.Physics.of.The.Impossible.01of12.How.To.Explore.T&amp;tr=udp%3A%2F%2Ftracker.openbittorrent.com%3A80&amp;tr=udp%3A%2F%2Fopen.demonii.com%3A1337&amp;tr=udp%3A%2F%2Ftracker.coppersurfer.tk%3A6969&amp;tr=udp%3A%2F%2Fexodus.desync.com%3A6969","seeders":0,"leechers":1,"uploader":"itvend","files":1,"time":1274340355,"description":"General\nComplete name                    : Sci.Fi.Science.Physics.of.The.Impossible.01of12.How.To.Explore.The.Universe.HDTV.Xvid.Mp3.avi\nFormat                           : AVI\nFormat/Info                      : Audio Video Interleave\nFile size                        : 319 MiB\nDuration                         : 21mn 51s\nOverall bit rate                 : 2 039 Kbps\nWriting application              : Lavf52.32.0\n\nVideo\nID                               : 0\nFormat                           : MPEG-4 Visual\nFormat profile                   : AdvancedSimple@L5\nFormat settings, BVOP            : Yes\nFormat settings, QPel            : No\nFormat settings, GMC             : No warppoints\nFormat settings, Matrix          : Default (H.263)\nMuxing mode                      : Packed bitstream\nCodec ID                         : XVID\nCodec ID/Hint                    : XviD\nDuration                         : 21mn 51s\nBit rate                         : 1 897 Kbps\nWidth                            : 640 pixels\nHeight                           : 480 pixels\nDisplay aspect ratio             : 4:3\nFrame rate                       : 29.970 fps\nResolution                       : 24 bits\nColorimetry                      : 4:2:0\nScan type                        : Progressive\nBits/(Pixel*Frame)               : 0.206\nStream size                      : 297 MiB (93%)\nWriting library                  : XviD 1.2.1 (UTC 2008-12-04)\n\nAudio\nID                               : 1\nFormat                           : MPEG Audio\nFormat version                   : Version 1\nFormat profile                   : Layer 3\nFormat settings, Mode            : Joint stereo / MS Stereo\nCodec ID                         : 55\nCodec ID/Hint                    : MP3\nDuration                         : 21mn 51s\nBit rate mode                    : Constant\nBit rate                         : 128 Kbps\nChannel(s)                       : 2 channels\nSampling rate                    : 48.0 KHz\nResolution                       : 16 bits\nStream size                      : 20.0 MiB (6%)\nAlignment                        : Aligned on interleaves\nInterleave, duration             : 24 ms (0.72 video frame)\n","torrent":{"xt":"urn:btih:92d734fb5737b4718c532bb8fec4583c8d0e0567","amp;dn":"Sci.Fi.Science.Physics.of.The.Impossible.01of12.How.To.Explore.T","amp;tr":["udp%3A%2F%2Ftracker.openbittorrent.com%3A80","udp%3A%2F%2Fopen.demonii.com%3A1337","udp%3A%2F%2Ftracker.coppersurfer.tk%3A6969","udp%3A%2F%2Fexodus.desync.com%3A6969"],"infoHash":"92d734fb5737b4718c532bb8fec4583c8d0e0567","infoHashBuffer":{"type":"Buffer","data":[146,215,52,251,87,55,180,113,140,83,43,184,254,196,88,60,141,14,5,103]},"announce":[],"urlList":[]}}